<?xml version="1.0" encoding="UTF-8"?>
<svg id="svg17659" xmlns="http://www.w3.org/2000/svg" xmlns:svg="http://www.w3.org/2000/svg" xmlns:sodipodi="http://sodipodi.sourceforge.net/DTD/sodipodi-0.dtd" xmlns:inkscape="http://www.inkscape.org/namespaces/inkscape" version="1.1" viewBox="0 0 318 153">
  <!-- Generator: Adobe Illustrator 30.1.0, SVG Export Plug-In . SVG Version: 2.1.1 Build 136)  -->
  <defs>
    <style>
      .st0 {
        fill: #010101;
      }
    </style>
  </defs>
  <sodipodi:namedview id="namedview17661" bordercolor="#000000" borderopacity="0.25" inkscape:current-layer="layer1" inkscape:cx="296.87556" inkscape:cy="206.11479" inkscape:deskcolor="#d1d1d1" inkscape:document-units="mm" inkscape:pagecheckerboard="0" inkscape:pageopacity="0.0" inkscape:showpageshadow="2" inkscape:window-height="657" inkscape:window-maximized="1" inkscape:window-width="1280" inkscape:window-x="-8" inkscape:window-y="-8" inkscape:zoom="0.85389312" pagecolor="#ffffff" showgrid="false"/>
  <g id="layer1" inkscape:groupmode="layer" inkscape:label="שכבה 1">
    <g id="g17228">
      <path id="path17617" class="st0" d="M275.26,115.93c.11-.12.44-.55,1.7-1.72-.45.34-1.31.57-2.87,1.71-2.46.69-6.74,2.21-10.72,3.31-4.09.27-7.3,1.26-10.9,2.04-3.78,1.36-7.45,1.37-10.15,1.55-3.2-.36-6.45-.68-9.43-1.77-3.03.26-6.47-.5-10.01-1.95-4.17-1.31-7.88-3.49-10.27-7.27-2.17-3.19-3.82-6.51-4.9-10.06-1.09-4.08-1.67-8.3-2.53-12.69-.94-4.22-.87-8.49.66-12.39,2.1-4.41,5.64-8.69,10.22-12.44,4.47-3.44,10.52-5.51,19.05-4.82,1.77-1.21,2.54-5.17,4.41-11.94,3.58-5.11,8.15-9.17,13.46-11.2,5.57-2.87,11.12-2.87,15.87-1.14,2.87.63,4.95,1.58,7.08,3.11,1.79.98,3.21,2.11,4.3,3.56,2.16,1.81,2.93,3.16,3.48,4.33,3.15,4.06,3.52,9.3.81,17.65-3.58-6.87-4.09-10.09-5.35-13.26-1.09-.9-1.99-1.87-3.19-2.71-1.95-.46-3.64-1.25-5.64-2.3-2.16-.74-4.09-1.38-6.68-2.04-4.05-1.65-7.05-1.87-10.67-.16-3.03,2.36-6.19,5.14-9.03,8.84-2.19,4.94-5.74,8.88-9.26,11.14-5.48,3.47-11.16,5.22-15.02,7.5-3.61,2.54-5.36,5.32-6.18,8.55-.64,3.16-.63,7.39-.18,11.68.26,4.12,1.15,7.64,2.53,10.72,1.21,2.77,2.47,5.14,4.07,7.12,1.86,1.11,4.3,1.87,7.27,2.22,2.76.76,5.11.96,9.32,1.28,3.79,1.04,7.88,1.13,12.32,1.27,5.67-.63,11.09-1.65,16.14-3.03,3.99-1.19,7.39-3.13,10.39-4.81,4.08-2.07,5.5-4.95,5.68-10.81.35-2.67-.41-4.65-.85-6.46-.42-.8-1.32-2.16-.32-1.87-11.8,6.2-23.48.24-31.91-3.09-1.73-.45-2.49-.28-3-.48-1.52.17-1.87,0-3.73-1.42-.79-.64-1.61-1.43-3.47-3.22.4.49.97-1.43.93-2.84.99-1.02,1.4-1.33,2.93-1.96.92.02,1.43-.44,2.05.25,1.23.97,2.22,3.16,3.21,1.83-2.72-7.76,1.28-7.3,4.81,1.08.59.57,1.12.83,1.68,1.02.96.4,2.33.74,3.29.99,4.39,1.02,8.51,1.18,13.41,1.45.89-.32,1.31-.55,3.47-3.93,1.06-.59,1.8-1.62,3.14-2.38,2.22-.32,4.15.15,6.34,1.68.28.08,1.83,1.62,3.18,3.97.2.8.74,2.6,1.43,3.87,4.72,18.19-6.34,27.36-4.8,32.78,2.47,1.4,4.13,3.57,5,5.16.69,1.51,1.48,3.5.72,3.58-.26.16.45.51.26,1.21-.35,1.1.35,1.4.27,1.71.36.82,1.12,1.36.88,2.78-.25.94,2.39,2.65,1.31,4.31-.59,1.07-1.05,1.54-1.9,2.17-1.83.71-2.54.71-3.94.49-1.9-1.6-1.39-7.33-4.16-11.53-1.17-2.29-1.84-3.5-2.35-3.94-.78-.73-1.44-1.86-2.31-3.45-.92-1.37-1.67-2.87-1.39-2.82"/>
      <path id="path17619" class="st0" d="M83.19,78.51c-1.56,1.07-2.45,1.56-3.9,2.53-2.1,1.42-4.71,3.28-7.23,4.64-3.72,2.18-10.44-.92-8.03-1.34-3.36,4.82-7.17,6.54-7.87,5.7-3.4-1.18-5.61-2.55-8.1-4.26-3.06-2.37-4.89-3.61-6.38-3.62,5.64,19.53,6.37,32.89,3.13,46.37.06.13.17,1.21-.57,2.81-1.02.72-1.83,1.06-2.55,1.91-2.1.48-3.64-.55-3.94-3.02-.33-2.02-.48-6.61-.19-10.81.47-3.93.86-6.96,1.03-8.64-.44-3.56-1.52-7.32-2.9-11.19-1.94-7.41-4.46-9.7-3.67-7.04,6.61-2.53,4.05.66-.97-.27-.38,1.05-.44.72-.54-.09-.63,1.19-.75.93-.88.68,2.32-1.24,3.65-2.98,3.17-5.64-2.33,1.6-2.01.93-1.37.02.64-1.99,1.08-2.97,1.46-4.88.41-6.35,1.07-5.94,1.35-8.14-.35-1.26-2.75-3.8-4.91-6.96-2.24-4.96-3.63-8.61-4.23-11.09-.92-2.71-.69-8.19-.28-10.53.22-1.49.88-3.47,2.95-7.88.2-1.23.54-1.8,1.58-3.08.55-.89.73-1.08,1.25-1.99.2-.43.41.52.5.39-.41-1.87.1-3.15.59-3.45,1.63.02,2.18-1.09,3.2-1.67,1.01.05,1.21-.73,1.58-.83.08.71.32.75,1.87.63,3.41-.25,5.49,1.89,6.04,5.92-16.91,11.97-14.32,23.09-4.16,34.11.57.56,2.72,2.71,3.02,3.31.81,1.02,1.55,1.88,1.65,1.53,1.94,1.24,3.61,2.52,4.77,3.92.5.41.69.63.38.47.54.24,1.6.78,3.8,1.85,2.1,1.19,4.84,3.02,11.4,7.06-4.29-5.26-2.14-6.51,2.18-8.8,6.8-2.7,13.71-6.18,21.61-13.48,5.97-9.79,5.52-20.39.79-30.27-5.94.46-7.81-.65-10.04-6.43,1.23-3.75,2.11-4.75,8.12-6.23.34-.31,1.18-.85.08,1.33.48-.37.89-.52,1.35-.89,2.29.56,3.42,2.11,4.33,2.56-.11.68.4,1.49.17,2.52-.06.28-.14.59,1.4.02-.8,1.02-.98,1.33-1.23,1.67.77.63,1.23,1.14,2.36,2.23.77.83,1.86,2.16,2.79,3.59.62,1.77.47,1.77,1.31,3.84.57,1.76.97,2.82,1.31,4.37,1.43,10.28-1.74,18.51-5.7,24.59,2.14,6.26,4.35,15.53,3.75,24.67-.59,2.31-.9,3.87-1.4,6.68-.6,3.24-1.53,6.11-2.61,9.32-.29,1.57.41,3.51,2.21,6.24,1.31,2.34,2.41,4.42,3.04,5.4.08.27.4,1.31.72,2.38.63,1.33.17.8.64,1.53-.26.33-.23.45.03.71.02.13.02.46.05.58-.14.29.26.6.23.85.11.11.11.24.13.4.17.27.08.8.5,1.3-.54,1.12-.45,1.3-1.2,2.16-.65.4-1.39.59-2.38.95-.53.12-.86.02-1.02-.05-1.44-.28-2.29-1.23-2.57-2.82-.22.09-1.3-2.02-2.15-4.32-1.24-2.05-2.29-3.81-3.13-5.73-.38-1.18-1.24-2.71-2.04-4.12-.2-.09-.68-1.48-.83-3.38-.29-2.4.48-4.86.57-6.97.46-2.78.6-5.32,1.05-8.4-.11-2.5.19-5.51.2-8.13.48-2.46.35-5.53.54-7.17-.58-3.56-.54-5-.63-5.37-1.74,1.86-3.95,3.68-6.52,5.24M113.09,68.3v-3.86c.05-1.62.17-3.41.34-5.38.17-1.96.45-3.94.84-5.96.45-2.07,1.09-3.92,1.93-5.54.84-1.62,1.88-2.93,3.11-3.94,1.29-1.06,2.83-1.59,4.62-1.59,1.18,0,2.07.31,2.69.93.62.61.98,1.37,1.09,2.27.11.89-.17,1.87-.84,2.93-.62,1.01-1.6,1.93-2.94,2.77-.95,0-1.65.73-2.1,2.18-.39,1.4-.7,2.93-.92,4.62-.17,1.68-.25,3.3-.25,4.87v2.85c0,2.75.08,5.91.25,9.49.23,3.53.64,7.22,1.26,11.08.67,3.81,1.6,7.61,2.77,11.42,1.23,3.75,2.8,7.19,4.71,10.33,1.96,3.08,4.32,5.68,7.05,7.81,2.75,2.07,6.05,3.19,9.91,3.36,2.91.23,6.3-.28,10.16-1.51,3.92-1.29,7.56-3.11,10.92-5.46,3.36-2.35,6.22-5.07,8.57-8.14,2.41-3.13,3.61-6.38,3.61-9.74v-.58c-.78-4.42-1.57-8.08-2.35-11-.78-2.97-1.46-5.65-2.01-8.06-.56-2.4-1.03-4.87-1.43-7.39-.34-2.52-.51-5.46-.51-8.81.28-4.87.81-8.48,1.6-10.83.78-2.35,1.6-3.64,2.44-3.86.84-.28,1.74.31,2.69,1.76s1.8,3.58,2.52,6.38c.73,2.8,1.26,6.1,1.6,9.9s.45,7.86.34,12.17c.11,3.19.7,6.69,1.77,10.5,1.12,3.75,2.35,7.53,3.7,11.34,1.4,3.75,2.8,7.42,4.2,11,1.4,3.53,2.47,6.64,3.19,9.32.78,2.68,1.01,4.9.67,6.64-.34,1.74-1.43,2.6-3.27,2.6-2.13,0-3.73-.61-4.79-1.85-1.01-1.29-1.9-2.68-2.69-4.2-.73-1.57-1.51-2.97-2.35-4.2-.84-1.29-1.88-1.93-3.11-1.93-1.06,0-2.32.39-3.78,1.18s-3.11,1.82-4.96,3.11c-1.85,1.23-3.86,2.6-6.05,4.11-2.13,1.46-4.34,2.83-6.64,4.11-2.29,1.23-4.68,2.27-7.14,3.11-2.41.84-4.87,1.26-7.39,1.26-4.48,0-8.4-1.06-11.76-3.19-3.36-2.18-6.27-5.01-8.74-8.48-2.41-3.47-4.42-7.42-6.05-11.84-1.62-4.47-2.91-8.99-3.86-13.51-.9-4.59-1.57-9.01-2.01-13.26-.39-4.25-.59-8-.59-11.25"/>
    </g>
  </g>
</svg>